<?xml version="1.0" encoding="UTF-8"?>
<svg enable-background="new 0 0 750 500" version="1.1" viewBox="0 0 750 500" xml:space="preserve" xmlns="http://www.w3.org/2000/svg" xmlns:xlink="http://www.w3.org/1999/xlink">

	
		<defs>
			<rect id="a" width="750" height="500"/>
		</defs>
		<clipPath id="b">
			<use xlink:href="#a"/>
		</clipPath>
		<g clip-path="url(#b)" fill="none" opacity=".1" stroke="#FFA799" stroke-miterlimit="10">
			<path d="m313.58 394.28c4.088 4.649 9.936 7.306 14.817 11.115 9.212 7.188 14.657 18.277 17.61 29.582s3.7 23.048 5.303 34.622c1.204 8.693 3.061 17.691 8.499 24.579 5.09 6.448 12.827 10.337 20.749 12.513 14.245 3.911 29.355 2.842 44.011 0.992 11.05-1.395 22.935-3.676 30.447-11.898 8.045-8.806 8.78-21.78 10.638-33.562 1.548-9.817 4.161-19.465 7.779-28.721 4.676-11.964 11.01-23.241 15.388-35.317s6.728-25.432 3.109-37.756c-3.144-10.709-10.499-19.724-14.237-30.241-8.318-23.403 3.512-50.56 23.176-65.733 3.626-2.798 7.851-5.854 8.332-10.409 0.632-5.991-5.728-10.436-11.639-11.597-5.911-1.162-12.29-0.568-17.685-3.249-3.103-1.542-5.625-4.061-8.676-5.704s-7.153-2.221-9.756 0.066c-1.12 0.984-1.803 2.361-2.421 3.717-5.14 11.275-7.692 23.529-11.608 35.286s-9.542 23.474-19.226 31.205c-17.419 13.906-43.38 21.815-64.22 29.497-17.99 6.631-42.162 12.274-51.783 30.502-5.285 10.013-5.489 21.335 1.393 30.511z"/>
			<path d="m381.41 349.45c-9.428 3.044-19.289 6.355-26.043 13.604-10.755 11.543-9.53 32.068 2.522 42.25 6.199 5.237 14.309 7.671 22.337 8.866 19.118 2.846 38.549-0.604 57.569-4.045 6.895-1.247 14.154-2.664 19.44-7.264 2.946-2.564 5.06-5.954 6.76-9.47 5.458-11.291 6.94-24.574 3.482-36.629-3.769-13.138-14.37-28.845-29.682-25.583-18.971 4.04-37.915 12.309-56.385 18.271z"/>
			<path d="m393.23 434.63c-6.832 2.364-13.519 6.551-16.492 13.141-3.306 7.327-1.331 15.979 2.017 23.286 2.398 5.233 5.639 10.329 10.524 13.375 4.389 2.737 9.69 3.564 14.852 3.897 8.192 0.529 16.648-0.088 24.138-3.449s13.904-9.802 15.723-17.807c1.418-6.239 6e-3 -12.823 1.135-19.121 2.133-11.895-0.069-19.643-13.797-18.259-12.539 1.263-26.026 0.759-38.1 4.937z"/>
			<path d="m402.11 457.16c-0.573 1.334-0.579 2.9-0.018 4.238 0.415 0.989 1.115 1.839 1.509 2.836 0.493 1.248 0.503 2.708 1.308 3.781 0.66 0.879 1.734 1.329 2.765 1.708 2.263 0.833 4.771 1.516 7.05 0.729 1.804-0.623 3.177-2.074 4.475-3.473 0.926-0.998 1.851-1.997 2.776-2.995 0.529-0.571 1.064-1.149 1.448-1.826 2.672-4.71 0.957-13.478-5.593-12.338-4.424 0.771-13.794 2.853-15.72 7.34z"/>
			<path d="m265.55-9.808c-13.319 7.482-15.691 25.317-16.539 40.57-0.157 2.816-0.295 5.743 0.787 8.347 3.179 7.648 14.236 8.038 19.845 14.132 8.146 8.85 0.803 22.731 0.133 34.743-0.901 16.184 10.586 29.249 16.572 43.346 5.374 12.656 7.625 34.524-2.816 45.151-5.267 5.361-12.162 9.517-15.283 16.354-2.551 5.589-2.89 13.188-8.462 15.776-6.422 2.983-13.438-3.703-20.508-3.314-4.354 0.24-8.033 3.112-11.874 5.178-3.84 2.066-8.962 3.246-12.284 0.42-1.67-1.421-2.503-3.566-3.273-5.618-2.744-7.317-5.489-14.635-8.233-21.952-18.594 4.681-37.801 6.921-56.974 6.646-2.526-0.036-5.218-0.073-7.362 1.263-4.112 2.563-4.029 8.393-4.789 13.179-1.482 9.332-8.335 17.614-17.224 20.818-4.373 1.576-9.352 2.111-12.794 5.234-4.812 4.368-4.666 11.837-7.007 17.899-4.651 12.046-19.701 19.697-19.52 32.608 0.093 6.647 4.438 12.417 8.899 17.347 6.803 7.519 14.361 14.353 22.524 20.368-2.465 6.109 1.742 13.304 7.602 16.314 5.859 3.011 12.795 2.851 19.359 2.297s13.305-1.415 19.639 0.393c5.757 1.643 10.664 5.35 15.423 8.981 9.117 6.956 18.234 13.912 27.351 20.867 4.103 3.131 8.44 6.587 9.93 11.529 0.645 2.138 0.785 4.594 2.356 6.181 1.142 1.154 2.805 1.586 4.383 1.971 10.384 2.535 22.091 4.883 31.161-0.772 4.81-2.999 8.11-7.848 11.267-12.556 10.078-15.029 17.833-35.769 29.603-49.067 10.851-12.26 29.583-22.196 44.727-27.727 22.775-8.316 49.496-10.391 66.199-27.966 11.502-12.102 15.284-28.671 18.834-44.446 1.826-8.114 4.552-16.33 6.027-24.472 1.38-7.617-0.811-15.724 1.974-23.089 2.346-6.203 6.771-11.358 11.11-16.373 6.189-7.152 12.377-14.304 18.565-21.456 2.575-2.975 5.477-6.141 9.362-6.763 2.909-0.466 5.822 0.602 8.575 1.652 7.636 2.912 15.272 5.825 22.908 8.737 2.371 0.904 4.964 2.007 6.036 4.307 0.963 2.065 0.403 4.49-0.238 6.677-1.847 6.307-4.234 12.456-7.126 18.357 5.414 7.68 12.929 16.3 22.192 14.729 4.76-0.808 8.604-4.235 13.029-6.167s10.794-1.608 12.68 2.836c0.806 1.899 0.552 4.069 0.961 6.091 0.949 4.689 5.367 7.969 9.936 9.386s9.441 1.42 14.164 2.182c12.278 1.98 23.812 9.682 29.127 20.926s3.581 25.816-5.185 34.637c-4.5 4.528-10.683 7.65-13.527 13.366-1.218 2.448-1.852 5.396-4.06 7.009-2.444 1.785-5.793 1.219-8.816 1.089-10.341-0.445-20.169 5.316-27.074 13.026s-11.373 17.243-15.743 26.626c6.528 3.351 13.208 6.816 18.137 12.252s7.81 13.353 5.336 20.261c-0.538 1.502-1.321 2.966-1.367 4.56-0.081 2.833 2.115 5.128 3.826 7.388 19.978 26.401-29.046 65.645-40.841 86.949-11.033 19.927-14.937 46.869-0.082 64.135" stroke-width="3"/>
			<path d="m551.52-11.921c-0.095 12.451 9.175 23.131 18.937 29.831 8.813 6.049 20.683 8.241 19.225 22.136-0.126 1.204-0.371 2.454 0.025 3.598 0.218 0.63 0.618 1.181 1.057 1.682 4.865 5.553 13.986 5.315 19.253 10.488 1.477 1.451 2.571 3.262 4.093 4.666 4.783 4.413 12.264 3.705 18.584 2.154 17.63-4.326 34.123-0.774 45.561 14.672 11.845 15.996 8.415 40.813 23.082 54.27 7.2 6.606 17.758 8.793 23.656 16.755 7.917 10.689-0.128 20.92 3.609 32.035 2.041 6.069 8.088 9.868 11.224 15.451 3.99 7.102 2.308 16.897-3.822 22.262-4.722 4.133-12.172 6.696-12.851 12.934-0.181 1.665 0.199 3.393-0.273 5-0.526 1.79-2.008 3.108-3.408 4.342-3.25 2.863-6.493 5.91-8.394 9.802s-2.211 8.842 0.297 12.372c1.409 1.983 3.527 3.318 5.422 4.843 7.301 5.872 8.06 14.401 13.881 21.075 7.938 9.102 21.135 10.983 33.143 12.273" stroke-width="3"/>
			<path d="m-23.72 126.29c12.93 3.867 26.636 5.12 40.053 3.661 5.599-0.609 11.336-1.761 15.955-4.985 4.618-3.223 7.863-8.96 6.696-14.47-0.535-2.527-1.932-4.832-2.271-7.392-0.712-5.377 3.279-10.117 6.997-14.066 2.74-2.91 5.656-5.934 9.473-7.119 6.52-2.024 13.258 1.871 18.976 5.601 2.941 1.919 6.072 4.073 7.219 7.392 0.726 2.102 0.561 4.46 1.469 6.49 2.936 6.566 12.822 4.221 18.93 0.424 9.376-5.828 18.38-12.983 23.514-22.756 5.133-9.774 5.575-22.645-1.331-31.258-4.641-5.787-12.677-10.798-11.395-18.104 0.852-4.856 5.742-8.036 7.331-12.703 3.324-9.762-8.967-19.975-5.338-29.628" stroke-width="3"/>
			<path d="m68.515 439.33c-1.367 6.111-2.446 13.362 1.873 17.896 2.656 2.789 6.685 3.713 10.491 4.298 6.634 1.021 13.363 1.422 20.072 1.196 7.742-0.261 15.742-1.321 23.049 1.25 4.598 1.618 8.61 4.583 13.132 6.402 8.305 3.342 17.616 2.588 26.532 1.78 4.08-0.37 8.294-0.778 11.885-2.751s6.415-5.952 5.73-9.992c-0.9-5.307-6.83-7.909-11.94-9.603-11.154-3.698-25.854-5.862-34.126-14.431-6.162-6.383-8.294-13.772-17.841-16.08-16.617-4.015-44.882 2.26-48.857 20.035z" stroke-width="3"/>
			<path d="m-10.587 108.64c3.422 7.462 14.234 9.009 21.293 4.818s10.891-12.229 13.101-20.135c1.344-4.809 2.265-9.803 4.586-14.224 8.036-15.301 30.071-17.767 45.768-10.535 5.468 2.519 10.96 6.024 16.957 5.493 6.743-0.598 12.399-7.116 12.041-13.876-0.672-12.655-18.493-20.432-16.721-32.98 0.476-3.369 2.382-6.34 3.555-9.534 4.144-11.278-1.135-23.62-6.315-34.461"/>
			<path d="m-8.901 84.867c7.624 2.366 14.83-5.015 17.942-12.366 3.111-7.351 4.705-15.929 10.854-21.02 10.616-8.788 28.322-2.054 39.295-10.393 5.935-4.51 8.297-12.549 7.823-19.988-0.473-7.439-3.357-14.485-6.203-21.374-1.858-4.497-5.301-9.884-10.046-8.808"/>
			<path d="m-10.914 46.973c0.725-7.669 8.973-12.231 16.489-13.922 7.516-1.69 15.813-2.1 21.75-7.009 5.013-4.144 7.332-10.907 7.299-17.411-0.034-6.504-2.161-12.82-4.762-18.781"/>
			<path d="m137.41-6.493c4.903 3.14 5.654 10.092 4.43 15.784s-3.891 11.139-3.937 16.962c-0.063 7.867 4.605 14.864 7.419 22.21 6.823 17.814 2.199 39.04-10.142 53.585-12.341 14.546-31.567 22.477-50.641 22.697-6.704 0.077-13.819-0.642-19.732 2.517-5.355 2.861-8.656 8.35-12.453 13.087-16.546 20.643-47.318 28.414-71.681 18.102"/>
			<path d="m159.85-9.171c5.581 13.393 0.212 28.691 1.462 43.146 1.469 16.99 12.048 32.173 13.537 49.161 1.347 15.369-4.801 31.536 0.782 45.918 6.882 17.728 28.195 24.768 40.425 39.331 4.601 5.479 8.437 12.442 15.262 14.588 8.868 2.789 17.945-4.208 22.897-12.076 4.041-6.42 6.681-14.171 5.124-21.595-2.182-10.407-11.809-17.565-16.083-27.301-4.396-10.014-2.683-21.54-0.62-32.28 0.657-3.42 1.325-7.054 0.073-10.304-1.466-3.806-5.179-6.161-8.131-8.974-10.543-10.047-11.576-26.66-8.555-40.907 3.02-14.247 9.331-27.755 11.044-42.218"/>
			<path d="m184.81-6.2c2.949 13.524 5.91 27.149 6.225 40.988 0.165 7.272-0.401 14.579 0.452 21.803 0.852 7.223 3.31 14.562 8.553 19.604 0.948 0.912 2.059 1.775 3.367 1.913 2.945 0.313 4.892-2.98 5.67-5.838 2.011-7.386 1.598-15.194 0.978-22.824-0.901-11.09-2.207-22.265-0.804-33.302 1.403-11.038 5.874-22.162 14.555-29.122"/>
			<path d="m206.68 128.73c2.755 2.007 6.102 2.999 9.129 4.566 5.996 3.104 10.711 8.599 12.869 14.997 0.713 2.114 1.367 4.583 3.375 5.555 2.966 1.435 6.406-1.946 6.404-5.241s-2.12-6.156-4.042-8.832c-5.896-8.208-10.224-24.984-19.241-29.989-14.215-7.89-19.015 11.278-8.494 18.944z"/>
			<path d="m-18.225 182.62c22.866 5.664 47.123-2.832 66.873-15.673 10.18-6.618 19.744-14.475 31.066-18.86 7.833-3.034 16.238-4.29 24.604-5.047 9.873-0.893 19.805-1.118 29.708-0.674 5.616 0.252 11.452 0.788 16.275 3.677s8.286 8.798 6.622 14.167c-2.337 7.546-11.961 9.168-19.2 12.33-6.741 2.945-12.4 8.297-15.717 14.862-3.221 6.374-4.334 13.865-8.786 19.45-7.282 9.135-21.421 10.64-28.371 20.029-3.674 4.963-4.707 11.322-6.598 17.201-5.592 17.378-19.434 31.402-35.773 39.545-16.338 8.144-34.987 10.814-53.233 10.226"/>
			<path d="m-12.433 203.01c15.874 3.708 32.677-0.419 47.394-7.428 14.717-7.01 27.908-16.79 41.828-25.274 4.51-2.749 9.313-5.431 14.584-5.766 5.271-0.336 11.108 2.382 12.676 7.426 1.508 4.85-1.349 10.106-5.224 13.39-3.874 3.284-8.69 5.22-12.951 7.985-17.54 11.381-22.981 34.366-36.265 50.511-15.747 19.137-42.048 27.307-66.79 25.883"/>
			<path d="m-17.957 222.5c9.228 3.021 19.306 1.623 28.732-0.707s18.72-5.576 28.409-6.211c2.704 3.098 2.073 8.078-0.314 11.426s-6.106 5.446-9.703 7.438c-14.114 7.815-29.375 15.883-45.426 14.264"/>
			<path d="m208.58 228.71c-10.461-2.739-18.223-12.027-28.652-14.882-10.293-2.818-21.405 1.234-29.968 7.602s-15.232 14.885-22.603 22.601c-5.958 6.236-12.548 12.165-16.337 19.913s-4.006 18.064 2.132 24.123c5.061 4.996 13.695 6.585 16.323 13.193 1.064 2.675 0.898 5.774 2.289 8.294 2.67 4.838 9.317 5.196 14.838 5.441 27.675 1.229 54.469 15.695 70.68 38.159 3.266 4.526 6.934 9.854 12.502 10.252 4.169 0.298 8-2.441 10.609-5.706 7.098-8.883 7.488-21.179 10.874-32.033 3.111-9.972 8.993-19.064 16.814-25.988 8.615-7.628 20.208-13.673 23.055-24.822 3.86-15.113-13.671-35.171-25.473-43.464-17.827-12.529-38.253 2.248-57.083-2.683z"/>
			<path d="m143.63 275.86c1.267 2.296 3.371 4.001 5.496 5.538 5.441 3.937 11.379 7.188 17.628 9.65 5.598 2.206 11.433 3.778 17.003 6.056 6.636 2.714 12.862 6.428 18.404 10.975 3.779 3.101 7.337 6.649 11.839 8.556s10.379 1.695 13.545-2.03c2.226-2.619 2.618-6.269 3.316-9.635 1.486-7.16 4.803-13.933 9.549-19.498 11.988-14.057 14.716-22.985-4.841-28.501-11.324-3.194-20.991-9.071-31.904-13.071-11.449-4.196-24.189-3.678-35.738 0.167-10.686 3.558-32.075 17.699-24.297 31.793z"/>
			<path d="m192.89 261.2c-1.806-0.024-3.646 0.077-5.339 0.706-3.47 1.289-5.922 4.926-5.815 8.626 0.038 1.323 0.457 2.756 1.562 3.484 1.043 0.687 2.393 0.572 3.642 0.575 6.187 0.012 11.795 3.464 17.802 4.947 2.443 0.604 5.057 0.872 7.45 0.093s4.504-2.798 4.796-5.298c1.194-10.243-17.616-13.046-24.098-13.133z"/>
			<path d="m-9.405 317.4c19.342-6.137 39.928-12.327 59.595-7.329 12.546 3.189 23.669 10.803 32.534 20.237 6.724 7.155 12.49 15.561 20.997 20.463 16.755 9.655 39.009 2.998 56.351 11.554 13.608 6.714 21.337 21.331 33.182 30.814 14.999 12.008 35.096 14.789 53.987 18.292s39.078 9.091 50.763 24.343c5.771 7.531 8.864 16.719 11.861 25.722 4.869 14.626 9.737 29.252 14.606 43.877"/>
			<path d="m-13.45 339.13c9.544-3.434 19.188-6.893 29.259-8.097s20.755 0.031 29.345 5.424c13.56 8.512 19.82 25.777 33.604 33.921 18.858 11.141 44.252 1.243 64.181 10.331 14.365 6.551 22.853 21.549 35.577 30.895 21.505 15.795 51.979 13.513 74.599 27.664 13.1 8.195 22.494 21.359 28.74 35.493s9.618 29.338 12.953 44.426"/>
			<path d="m48.909 444.31c-0.851 7.67 0.07 15.783 4.13 22.346 6.293 10.173 18.839 14.747 30.747 15.886 11.907 1.138 23.963-0.429 35.852 0.886 12.986 1.437 25.369 6.266 38.269 8.335s27.408 0.852 36.97-8.051c3.498-3.257 6.12-7.361 8.162-11.681 3.436-7.271 5.206-16.154 1.281-23.174-2.049-3.665-5.439-6.405-9.038-8.569-10.727-6.449-23.247-8.32-34.996-12.082-12.639-4.048-20.829-10.801-30.509-19.517-17.528-15.784-39.438-16.119-59.157-1.764-11.99 8.728-20.075 22.644-21.711 37.385z"/>
			<path d="m-12.278 359.62c11.431-7.619 27.545-7.409 38.774 0.506s16.843 23.02 13.51 36.348c-1.922 7.684-6.421 14.441-9.392 21.783-6.521 16.118-5.345 34.634 0.482 51.015s15.993 30.883 27.215 44.162"/>
			<path d="m-10.07 382.57c3.468-5.23 11.869-5.23 16.583-1.086 4.713 4.143 6.173 11.002 5.569 17.249-0.604 6.246-2.949 12.168-4.694 18.197-9.838 33.986 0.87 73.076 26.655 97.303"/>
			<path d="m208.84 516.42c5.311 0.029 9.457-4.577 12.04-9.217 2.208-3.966 3.845-8.25 4.843-12.678 1.293-5.732 1.532-11.728 3.588-17.232s6.604-10.674 12.467-11.056c4.608-0.301 8.989 2.473 11.801 6.135 2.812 3.663 4.328 8.132 5.743 12.528 4.213 13.088 7.951 26.328 11.202 39.687"/>
			
				<path d="m482.45-17.239c9.499 11.404 14.086 26.304 15.115 41.11s-1.27 29.642-4.253 44.181c-1.633 7.956-3.56 16.076-8.123 22.794-7.343 10.812-20.149 16.216-30.984 23.525-29.939 20.195-45.504 56.069-52.98 91.399-1.689 7.98-3.093 16.169-6.868 23.399-4.029 7.716-10.526 13.865-17.448 19.142-8.273 6.306-17.527 11.665-27.719 13.747-10.192 2.081-21.451 0.548-29.699-5.79-5.557-4.27-9.417-10.39-12.382-16.74-4.944-10.587-7.719-22.341-6.813-33.99 1.96-25.192 20.665-49.18 13.88-73.52-4.615-16.551-20.525-29.606-20.214-46.786 0.162-8.928 4.866-17.71 3.008-26.444-2.049-9.629-11.31-15.89-15.899-24.599-3.316-6.292-4.046-13.58-4.717-20.66-0.767-8.1 0.038-18.697 7.846-20.987 10.766-3.159 16.637-12.347 26.335-17.99 9.054-5.269 18.185-10.573 28.105-13.941 11.692-3.969 24.156-5.131 36.502-5.329 35.779-0.575 84.403-0.018 107.31 27.479z"/>
				<path d="m307.22 4.336c8.233-2.614 12.861-9.565 20.346-13.936 6.99-4.081 14.048-8.18 21.712-10.817 9.017-3.1 18.631-4.038 28.169-4.332 17.062-0.527 37.339-0.667 54.675 3.929 11.805 3.111 22.21 8.398 29.307 17.126 7.578 9.32 10.876 21.794 11.368 34.334 0.054 1.384 0.083 2.769 0.077 4.155-0.033 10.832-1.953 21.719-4.298 32.396-1.451 6.598-3.105 13.324-6.779 18.923-5.651 8.613-15.506 13.045-23.761 18.983-12.34 8.877-21.487 21.018-28.077 34.313-5.91 11.925-9.854 25.051-12.533 38.069-1.293 6.282-2.394 12.713-5.265 18.436-3.113 6.205-8.1 11.255-13.487 15.6-5.966 4.817-12.647 8.972-20.041 11.008-0.591 0.163-1.187 0.312-1.787 0.446-8.101 1.81-17.124 0.706-23.792-4.21-4.505-3.316-7.69-8.122-10.082-13.207-1.854-3.934-3.25-8.098-4.191-12.345-1.111-5-1.6-10.15-1.285-15.292 0.848-13.491 7.173-26.68 9.835-39.849 1.364-6.663 1.774-13.319 0.013-20.008-3.547-13.495-15.517-24.378-15.222-38.314 0.156-7.281 3.749-14.44 2.459-21.543-1.416-7.86-8.19-13.167-11.395-20.269-1.365-3.04-2.04-6.332-2.415-9.69-0.259-2.326-0.375-4.682-0.475-7.008-0.284-6.5 0.642-14.903 6.924-16.898z"/>
				<path d="m330.24 16.13c5.702-2.045 9.086-6.784 14.358-9.882 4.925-2.894 9.911-5.787 15.318-7.693 6.342-2.232 13.107-2.954 19.836-3.335 12.703-0.719 27.226-1.052 39.542 2.134 8.629 2.196 16.102 6.08 21.112 12.497 5.653 7.241 7.677 17.281 7.621 27.558-6e-3 1.095-0.024 2.193-0.071 3.293-0.343 8.527-2.074 17.171-4.118 25.626-1.27 5.241-2.654 10.566-5.435 15.052-3.97 6.404-10.861 9.886-16.537 14.44-8.748 7.021-15.174 16.103-19.62 25.507-4.135 8.747-6.758 18.351-8.619 27.857-0.898 4.584-1.692 9.259-3.662 13.473-2.196 4.697-5.674 8.644-9.526 12.058-4.271 3.795-9.132 7.077-14.611 8.784-0.438 0.136-0.88 0.262-1.326 0.376-6.011 1.538-12.797 0.865-17.886-2.63-3.453-2.363-5.963-5.855-7.783-9.673-1.444-3.019-2.425-6.251-3.098-9.526-0.791-3.829-1.181-7.785-1.04-11.757 0.397-10.301 4.379-20.528 6.013-30.783 0.817-5.127 1.034-10.255-0.195-15.41-2.479-10.439-10.508-19.149-10.229-29.843 0.149-5.634 2.631-11.171 1.91-16.642-0.784-6.091-5.083-10.439-6.89-15.938-0.776-2.36-1.064-4.881-1.139-7.431-0.051-1.767 2e-3 -3.55 0.075-5.305 0.195-4.899 1.238-11.099 6-12.807z"/>
				<path d="m353.26 27.924c3.181-1.419 5.31-4.002 8.37-5.827 2.86-1.706 5.775-3.394 8.925-4.57 3.668-1.363 7.585-1.896 11.504-2.338 8.353-0.942 17.105-1.408 24.409 0.339 5.448 1.303 9.978 3.778 12.916 7.868 3.716 5.174 4.504 12.764 3.873 20.782-0.063 0.806-0.13 1.618-0.219 2.431-0.652 6.222-2.196 12.623-3.938 18.857-1.088 3.883-2.215 7.799-4.091 11.182-2.316 4.175-6.205 6.755-9.314 9.898-5.147 5.204-8.844 11.2-11.162 16.701-2.351 5.578-3.662 11.651-4.706 17.646-0.503 2.886-0.983 5.81-2.059 8.51-1.272 3.193-3.249 6.034-5.565 8.517-2.576 2.773-5.617 5.182-9.181 6.56-0.285 0.11-0.573 0.212-0.865 0.307-3.92 1.266-8.47 1.023-11.979-1.049-2.401-1.409-4.236-3.588-5.483-6.141-1.033-2.103-1.6-4.403-2.005-6.708-0.472-2.658-0.768-5.42-0.796-8.223-0.07-7.11 1.611-14.37 2.19-21.717 0.283-3.587 0.293-7.191-0.404-10.812-1.411-7.383-5.5-13.92-5.237-21.371 0.143-3.987 1.505-7.901 1.361-11.741-0.162-4.322-1.965-7.718-2.386-11.607-0.182-1.682-0.088-3.429 0.137-5.173 0.157-1.209 0.379-2.417 0.625-3.602 0.679-3.3 1.837-7.272 5.08-8.719z"/>
				<path d="m369.65 99.729c0.137 1.333 0.29 2.702 0.912 3.889 1.711 3.264 6.55 3.817 9.66 1.839 3.109-1.978 4.696-5.685 5.355-9.311 0.658-3.626 0.569-7.358 1.248-10.981 0.427-2.284 2.469-7.254 4.795-13.25s4.938-13.016 6.505-19.399 2.091-12.129 0.241-15.577c-0.925-1.724-2.443-2.873-4.72-3.239s-5.314 0.05-9.277 1.456c-3.207 1.138-5.875 2.685-8.084 4.56s-3.959 4.077-5.332 6.528c-2.745 4.901-3.977 10.792-4.343 17.03s0.135 12.824 0.857 19.114c0.721 6.291 1.664 12.286 2.183 17.341z"/>
			
			<path d="m526.49-8.779c0.208 11.22 8.327 20.656 16.845 27.963 8.517 7.307 18.176 13.913 23.51 23.786 4.142 7.668 5.333 16.769 10.162 24.024 7.331 11.012 21.26 15.348 34.265 17.769 13.006 2.421 26.846 3.957 37.495 11.807 18.287 13.481 21.498 41.354 40.274 54.147 6.121 4.171 13.855 6.721 17.678 13.065 3.993 6.626 2.363 15.268 5.206 22.463 0.978 2.475 2.474 4.74 3.246 7.287 2.978 9.825-5.269 19.014-10.917 27.587-15.202 23.072-12.161 56.501 6.955 76.451 7.761 8.099 17.553 13.906 27.212 19.609 10.003 5.906 20.007 11.813 30.01 17.719"/>
			<path d="m577.48-11.428c19.732 9.997 26.419 36.218 45.459 47.478 17.721 10.48 42.7 5.854 57.687 19.97 6.113 5.758 9.465 13.765 13.829 20.941 5.11 8.401 11.778 15.851 19.563 21.857 7.977 6.154 17.744 10.915 27.774 9.963 10.03-0.951 19.765-9.249 19.501-19.32"/>
			<path d="m611.87-4.499c3.346 10.362 12.656 17.796 22.589 22.256 9.934 4.459 20.749 6.533 31.074 9.994 7.415 2.485 14.587 5.693 21.383 9.563 5.036 2.868 9.925 6.15 13.759 10.495 7.255 8.222 10.714 20.134 20.268 25.515 8.024 4.519 18.599 2.818 25.971-2.701 7.371-5.52 11.824-14.247 13.895-23.22"/>
			<path d="m648.27-3.802c10.83 14.412 32.689 13.731 47.982 23.277 6.868 4.287 12.252 10.569 18.764 15.38 6.511 4.811 15.087 8.144 22.668 5.302 5.079-1.904 8.799-6.224 12.289-10.377 3.147-3.744 6.294-7.489 9.441-11.233 1.93-2.297 3.925-4.721 4.551-7.655 0.627-2.934-0.63-6.506-3.482-7.437"/>
			<path d="m698.5-3.488c5.208 4.479 10.916 8.375 16.984 11.593 3.541 1.878 7.479 3.568 11.437 2.935 4.192-0.67 7.617-3.903 9.611-7.651 1.993-3.748 2.783-7.999 3.547-12.175"/>
			
				<path d="m523.35 462.04c7.641-17.998 21.954-32.618 32.453-48.922 9.353-14.524 13.976-31.056 13.752-48.311-0.206-15.853-7.354-33.932 2.13-48.408 12.873-19.649 46.331-23.643 67.497-22.515 25.633 1.366 51.046 10.281 72.439 24.362 24.508 16.131 42.687 39.702 54.84 66.199 12.925 28.18 23.321 62.742 20.843 93.957-2.136 26.901-15.833 52.171-39.328 66.127-32.351 19.216-75.942 18.562-111.75 11.521-29.778-5.855-59.741-17.325-86.466-31.699-12.896-6.936-24.972-17.299-29.102-31.348-3.173-10.796-1.512-21.054 2.695-30.963z"/>
				<path d="m646.34 327.48c20.39 0.382 41.168 5.293 58.755 15.824 20.462 12.252 34.301 30.93 42.953 52.105 9.108 22.291 16.08 49.491 13.102 74.034-2.595 21.389-14.047 41.286-32 52.192-24.464 14.861-56.802 16.045-84.517 11.468-0.986-0.164-1.966-0.334-2.939-0.512-23.514-4.29-47.165-13.579-67.867-25.3-9.861-5.583-19.073-13.705-22.233-24.64-2.425-8.385-1.186-16.373 1.999-24.095 5.788-14.036 16.708-25.525 24.895-38.193 7.364-11.385 11.303-24.198 11.67-37.505 0.332-12.223-4.49-26.077 3.166-37.213 10.495-15.171 36.44-18.476 53.016-18.165z"/>
				<path d="m653.49 361.07c15.16-0.62 31.311 0.288 45.071 7.285 16.439 8.36 25.924 22.136 31.066 38.011 5.305 16.379 8.815 36.249 5.362 54.11-3.071 15.886-12.256 30.411-24.672 38.256-17.689 11.177-40.65 13.506-61.007 10.71-0.722-0.1-1.44-0.207-2.153-0.32-17.251-2.725-34.589-9.821-49.268-18.901-6.827-4.223-13.175-10.111-15.365-17.932-1.677-5.974-0.861-11.691 1.304-17.225 3.934-10.074 11.462-18.43 17.337-27.465 5.374-8.247 8.63-17.339 9.587-26.699 0.87-8.593-1.656-18.244 4.203-26.019 8.076-10.718 26.559-13.322 38.535-13.811z"/>
				<path d="m660.64 394.66c9.952-1.674 21.494-4.762 31.386-1.253 12.461 4.419 17.59 13.29 19.179 23.917 1.558 10.414 1.487 23.016-2.378 34.187-3.597 10.393-10.451 19.567-17.345 24.321-10.906 7.521-24.499 10.967-37.497 9.953-0.458-0.037-0.913-0.08-1.367-0.128-10.988-1.16-22.016-6.026-30.669-12.503-3.798-2.843-7.277-6.517-8.497-11.223-0.929-3.562-0.535-7.009 0.608-10.356 2.08-6.112 6.216-11.336 9.779-16.736 3.385-5.108 5.957-10.481 7.505-15.893 1.408-4.964 1.204-10.396 5.239-14.824 5.695-6.251 16.696-8.223 24.057-9.462z"/>
				<path d="m646.52 442.07c-2.86 4.035-3.067 9.779-0.504 14.009s7.75 6.707 12.651 6.04c5.64-0.768 10.036-5.099 13.987-9.196 4.564-4.732 35.804-33.766 12.844-34.472-5.986-0.184-13.034 6.792-17.702 9.792-6.592 4.235-16.646 7.296-21.276 13.827z"/>
			
			<path d="m514.16 91.977c-3.162 3.928-7.926 6.135-12.018 9.081s-7.846 7.442-7.245 12.449c0.569 4.741 4.836 8.157 9.134 10.236s9.069 3.449 12.62 6.641c3.806 3.422 5.736 8.813 4.967 13.873-0.432 2.844-1.613 5.93-0.198 8.435 0.802 1.42 2.3 2.309 3.823 2.889 5.328 2.028 11.256 0.975 16.956 1.049 5.701 0.074 12.224 1.984 14.405 7.251 1.201 2.901 0.81 6.265 1.973 9.181 2.684 6.728 11.493 7.76 18.592 9.198 25.176 5.098 44.675 30.221 43.369 55.874-0.422 8.298-2.479 17.614 2.629 24.167 3.764 4.83 10.248 6.432 16.231 7.731 8.393 1.823 18.222 3.306 24.66-2.38 3.671-3.243 5.328-8.138 6.835-12.799 4.261-13.18 8.523-26.361 12.784-39.541 1.237-3.826 2.478-7.67 3.107-11.641 0.996-6.289 0.421-12.777-1.278-18.914-1.608-5.805-4.244-11.369-8.066-16.025-6.416-7.814-15.777-12.678-22.658-20.086-11.156-12.009-15.339-30.147-28.921-39.323-10.251-6.926-22.995-6.902-34.601-9.832-12.528-3.163-22.16-9.954-29.57-20.501-7.929-11.285-15.684-36.821-33.777-23.007-11.522 8.795-5.278 25.466-13.753 35.994z"/>
			<path d="m549.17 90.053c-2.685-1.109-6.024-1.229-8.275 0.608-2.967 2.421-2.94 7.126-5.557 9.922-2.834 3.028-8.562 3.743-9.129 7.852-0.313 2.266 1.324 4.351 3.149 5.732s3.963 2.407 5.427 4.165c2.141 2.571 2.426 6.181 2.382 9.527-0.02 1.491-0.082 3.012 0.339 4.443 1.1 3.742 5.143 5.809 8.967 6.578 3.823 0.769 7.857 0.697 11.462 2.186 9.811 4.052 12.284 17.45 21.234 23.157 5.87 3.743 13.473 3.445 20.228 1.764 2.674-0.666 5.331-1.541 7.653-3.024 4.326-2.761 7.124-7.392 9.044-12.151 2.007-4.973 3.213-10.586 1.53-15.677-1.776-5.374-6.5-9.293-11.562-11.824-6.764-3.382-14.316-4.857-21.621-6.595-4.411-1.05-9.608-1.499-13.664-3.671-9.587-5.137-11.394-18.594-21.607-22.992z"/>
			<path d="m632.06 164.57c-4.23 0.402-8.701 2.123-10.769 5.835-1.139 2.043-1.418 4.47-1.262 6.804 0.927 13.9 15.559 23.334 18.485 36.954 1.065 4.955 0.483 10.091 0.211 15.152s-0.183 10.348 2.069 14.889 7.232 8.088 12.215 7.164c5.732-1.062 8.975-7.151 10.602-12.749 4.201-14.45 3.129-29.734 0.74-44.399-1.572-9.651-2.897-17.359-11.43-22.967-6.328-4.158-13.077-7.422-20.861-6.683z"/>
			<path d="m583.42 142.66c0.966 1.64 0.93 3.74 1.971 5.333 1.274 1.949 3.822 2.628 6.15 2.69 10.388 0.279 15.722-12.053 7.028-18.536-4.355-3.248-21.024-5.535-22.884 0.962-1.453 5.08 5.713 6.119 7.735 9.551z"/>
			<path d="m315.04 422.16c-5.827-5.957-13.4-10.081-18.777-16.447-13.864-16.416-8.184-42.864 6.539-58.515 14.723-15.65 35.877-23.189 56.153-30.3 20.277-7.111 41.395-14.897 55.796-30.844 18.085-20.027 21.949-48.599 28.419-74.796 1.538-6.226 3.391-12.645 7.653-17.437s11.621-7.431 17.283-4.419c5.481 2.916 7.416 9.64 10.852 14.811 7.605 11.445 22.682 15.115 36.402 15.873 13.72 0.759 28.038-0.354 40.638 5.127 3.452 1.502 6.977 3.831 7.947 7.469 1.407 5.28-3.098 10.13-7.194 13.746-14.525 12.823-29.051 25.647-43.576 38.47-4.811 4.247-9.71 8.601-12.89 14.174-6.355 11.135-4.219 26.44 4.941 35.41 2.756 2.698 6.025 4.834 8.741 7.572 9.844 9.922 10.609 26.037 6.35 39.349-4.258 13.312-12.641 24.835-19.44 37.046-14.119 25.36-21.551 54.404-21.348 83.428 0.02 2.876 0.07 5.926-1.402 8.397-1.461 2.453-4.149 3.866-6.738 5.071-29.39 13.679-63.806 15.666-94.799 6.443-10.328-3.074-26.963-7.561-34.121-16.366-7.983-9.819-8.589-27.081-10.506-39.033-2.511-15.651-5.377-32.426-16.923-44.229z"/>
			<path d="m403.65 370.06c-5.817 1.66-12.08 2.813-16.672 6.751s-6.381 11.945-1.763 15.852c3.123 2.642 7.739 2.365 11.736 1.497s8.133-2.183 12.088-1.14c2.083 0.549 3.946 1.721 5.975 2.444 7 2.494 14.679-0.64 21.195-4.213 3.372-1.849 6.737-3.887 9.222-6.822s3.987-6.942 3.078-10.679c-1.719-7.067-12.628-12.274-19.331-12.865-8.46-0.746-17.43 6.864-25.528 9.175z"/>
		</g>
	

</svg>
