<?xml version="1.0" encoding="UTF-8"?>
<svg version="1.1" xmlns="http://www.w3.org/2000/svg" width="512" height="512">
<path d="M0 0 C4.46800871 0.98030611 7.72717382 3.93679993 11.234375 6.74023438 C12.06324219 7.37703125 12.89210937 8.01382812 13.74609375 8.66992188 C15.44455172 9.97562769 17.13730668 11.28878618 18.82421875 12.609375 C22.25628585 15.28772234 25.74439113 17.88815063 29.234375 20.49023438 C30.52755417 21.46130839 31.8205196 22.4326671 33.11328125 23.40429688 C37.78672938 26.90852578 42.47559529 30.39167644 47.171875 33.86523438 C48.32526367 34.72181641 48.32526367 34.72181641 49.50195312 35.59570312 C63.05618714 46.00072473 63.05618714 46.00072473 79.51171875 48.16992188 C87.63684306 46.14155512 93.88565271 40.94538218 100.359375 35.86523438 C102.23315102 34.41573408 104.10815119 32.96781486 105.984375 31.52148438 C106.88800781 30.82410156 107.79164063 30.12671875 108.72265625 29.40820312 C111.88785081 26.99123496 115.10333512 24.65770222 118.359375 22.36523438 C124.07835348 18.33033009 129.72772679 14.208693 135.359375 10.05273438 C136.58744873 9.146604 136.58744873 9.146604 137.84033203 8.22216797 C142.12995872 5.06370013 142.12995872 5.06370013 146.3605957 1.82739258 C149.64031012 -0.51306291 152.29830768 0.11537082 156.234375 0.49023438 C159.22085078 2.68990389 160.03674857 5.21840974 161.13208008 8.68579102 C161.47286087 9.74862808 161.81364166 10.81146515 162.16474915 11.9065094 C162.52417099 13.0594902 162.88359283 14.21247101 163.25390625 15.40039062 C163.63496017 16.59643417 164.0160141 17.79247772 164.40861511 19.02476501 C165.42392921 22.21667274 166.43132538 25.41085722 167.43475342 28.60650635 C168.43570273 31.78900416 169.44569527 34.96860405 170.45507812 38.1484375 C171.04301147 40.00088074 171.04301147 40.00088074 171.64282227 41.89074707 C172.22374634 43.72083313 172.22374634 43.72083313 172.81640625 45.58789062 C173.19998291 46.79747437 173.58355957 48.00705811 173.97875977 49.2532959 C177.2725333 59.63378566 177.2725333 59.63378566 180.62890625 69.99414062 C180.96907524 71.0538784 180.96907524 71.0538784 181.31611633 72.13502502 C183.68274137 79.28962559 186.59278614 84.31784037 193.296875 87.92773438 C198.68643834 90.38555161 203.94148578 90.62090273 209.79101562 90.52441406 C210.53473923 90.51652863 211.27846283 90.50864319 212.04472351 90.5005188 C213.65326636 90.48337323 215.26178835 90.46417365 216.87028503 90.44313812 C220.29246339 90.40100654 223.71468894 90.37759432 227.13703156 90.35310745 C233.50288654 90.30740694 239.86844004 90.25428469 246.23388672 90.16796875 C250.66815961 90.10855921 255.10204347 90.07360313 259.53666687 90.05478668 C261.22402126 90.04305016 262.91133818 90.02224579 264.59846497 89.99214935 C266.9587008 89.95109891 269.31718638 89.94125746 271.67773438 89.93847656 C272.37190964 89.91892914 273.0660849 89.89938171 273.78129578 89.87924194 C277.57696308 89.91106018 279.16892947 90.43956778 282.20713806 92.79168701 C284.234375 95.49023437 284.234375 95.49023437 284.22680664 99.21875 C283.29982549 103.86050419 281.85707867 108.35087375 280.35546875 112.83398438 C280.06737839 113.71287827 279.77928802 114.59177216 279.48246765 115.49729919 C278.86847982 117.36686274 278.251135 119.23532668 277.63067627 121.10275269 C276.66442049 124.01268403 275.70874563 126.92591322 274.75537109 129.84008789 C272.08096751 137.99655799 269.38175721 146.14091584 266.52734375 154.23632812 C266.15230713 155.31140625 265.77727051 156.38648438 265.39086914 157.49414062 C264.73361367 159.36339074 264.06118237 161.22742277 263.36889648 163.08398438 C260.54297016 171.1297295 259.80035634 179.54254286 262.921875 187.61523438 C266.72403458 194.26636589 273.07704947 198.22313737 279.234375 202.49023438 C280.56754853 203.43523953 281.89955055 204.38189925 283.23046875 205.33007812 C286.06797727 207.34622897 288.91386992 209.34976079 291.765625 211.34570312 C297.10984106 215.09394621 302.39574227 218.9215171 307.68066406 222.75268555 C311.23413829 225.32735616 314.79283355 227.89308544 318.375 230.42773438 C319.01800049 230.88325684 319.66100098 231.3387793 320.32348633 231.80810547 C321.51689192 232.65204861 322.71192993 233.49369029 323.90893555 234.33251953 C329.48000823 238.27512481 329.48000823 238.27512481 331.234375 240.49023438 C332.04499515 245.43501729 332.04499515 245.43501729 331.234375 248.49023438 C329.93652344 249.99633789 329.93652344 249.99633789 328.21875 251.36914062 C327.58211426 251.8814624 326.94547852 252.39378418 326.28955078 252.92163086 C322.85269034 255.54479887 319.37990797 258.1054251 315.859375 260.61523438 C315.07626953 261.17726563 314.29316406 261.73929687 313.48632812 262.31835938 C307.56454505 266.5611148 301.61207064 270.76013627 295.65551758 274.95385742 C290.26659169 278.75164161 284.8988222 282.57801131 279.546875 286.42773438 C278.433125 287.2253418 278.433125 287.2253418 277.296875 288.0390625 C266.888176 295.38257335 266.888176 295.38257335 261.234375 306.49023438 C260.27539025 315.2925546 262.08065669 322.66763222 264.99609375 330.91210938 C265.38376419 332.05576965 265.77143463 333.19942993 266.17085266 334.37774658 C267.40420176 338.00465308 268.66216582 341.62240958 269.921875 345.24023438 C270.74846354 347.6511041 271.57334765 350.06255892 272.39648438 352.47460938 C272.79763458 353.64906616 273.19878479 354.82352295 273.61209106 356.03356934 C274.00693695 357.18973755 274.40178284 358.34590576 274.80859375 359.53710938 C275.19804169 360.67619751 275.58748962 361.81528564 275.98873901 362.9888916 C276.73292567 365.1656112 277.47643803 367.34256148 278.21917725 369.51977539 C278.85763341 371.38789206 279.49887079 373.25506284 280.144104 375.12084961 C280.90398149 377.32785791 281.64488699 379.54014473 282.37890625 381.75585938 C282.77053955 382.91375977 283.16217285 384.07166016 283.56567383 385.26464844 C284.35543399 389.07418157 284.23081904 391.7314463 283.234375 395.49023438 C280.94270814 398.18708253 279.53154465 398.45441452 276.01391602 398.87841797 C274.76795654 398.88180176 273.52199707 398.88518555 272.23828125 398.88867188 C271.56772202 398.89154205 270.89716278 398.89441223 270.20628357 398.89736938 C268.79172926 398.89940559 267.37714651 398.89390668 265.96264648 398.88134766 C263.8071331 398.8653107 261.65350159 398.88119603 259.49804688 398.90039062 C258.11978756 398.89840762 256.7415294 398.89456275 255.36328125 398.88867188 C254.11619385 398.88528809 252.86910645 398.8819043 251.58422852 398.87841797 C247.99257378 398.46221426 246.0872304 397.67445696 243.234375 395.49023438 C242.421875 393.30273438 242.421875 393.30273438 242.234375 391.49023438 C241.409375 391.50183594 240.584375 391.5134375 239.734375 391.52539062 C230.52127065 391.597368 221.41934863 391.15823246 212.234375 390.49023438 C212.13125 391.27398437 212.028125 392.05773437 211.921875 392.86523438 C211.234375 395.49023438 211.234375 395.49023438 208.234375 397.49023438 C206.01429294 397.95286901 203.7830698 398.36310314 201.546875 398.74023438 C195.08772338 400.09199497 190.72011589 401.60518162 186.234375 406.49023438 C181.61847048 413.75371688 179.2349037 422.07613573 176.7231102 430.23435783 C176.02437634 432.50275588 175.31472298 434.76748992 174.60232544 437.03163147 C172.83858744 442.64445843 171.09242131 448.2627126 169.34729004 453.88134766 C167.86403568 458.6550453 166.37337719 463.42629905 164.87231827 468.1944294 C164.17413341 470.42293325 163.48705295 472.65466649 162.80026245 474.88670349 C162.37244892 476.24943387 161.94410265 477.61199717 161.51513672 478.97436523 C161.14605194 480.16331894 160.77696716 481.35227264 160.396698 482.57725525 C159.29241519 485.34477579 158.64433643 486.7864863 156.234375 488.49023438 C151.49555835 489.13530889 148.59066494 489.09573649 144.62109375 486.35742188 C143.37330746 485.37849561 142.14090167 484.37974965 140.921875 483.36523438 C139.51671102 482.25448412 138.1104129 481.14516745 136.703125 480.03710938 C135.97351563 479.45380859 135.24390625 478.87050781 134.4921875 478.26953125 C130.7075318 475.28698684 126.81222753 472.45761443 122.921875 469.61523438 C121.32383488 468.44127757 119.72618215 467.26679326 118.12890625 466.09179688 C117.32791504 465.50301758 116.52692383 464.91423828 115.70166016 464.30761719 C113.17116485 462.44367428 110.64557087 460.57325603 108.12109375 458.70117188 C107.28167236 458.07968262 106.44225098 457.45819336 105.57739258 456.81787109 C103.98877287 455.64145333 102.40127848 454.46351365 100.81518555 453.28369141 C87.33252588 442.94386778 87.33252588 442.94386778 70.95703125 440.81054688 C62.83190694 442.83891363 56.58309729 448.03508657 50.109375 453.11523438 C48.23559898 454.56473467 46.36059881 456.01265389 44.484375 457.45898438 C43.12892578 458.50505859 43.12892578 458.50505859 41.74609375 459.57226562 C38.58089919 461.98923379 35.36541488 464.32276653 32.109375 466.61523438 C26.39039652 470.65013866 20.74102321 474.77177575 15.109375 478.92773438 C14.29065918 479.53182129 13.47194336 480.1359082 12.62841797 480.75830078 C8.33879128 483.91676862 8.33879128 483.91676862 4.1081543 487.15307617 C0.82843988 489.49353166 -1.82955768 488.86509793 -5.765625 488.49023438 C-9.24184209 486.10290839 -9.92297835 482.57409182 -11.12231445 478.68310547 C-11.3374469 477.99486694 -11.55257935 477.30662842 -11.77423096 476.59753418 C-12.23985566 475.10429061 -12.70126183 473.60972653 -13.15892982 472.11402512 C-13.88643255 469.73910236 -14.62639578 467.3683961 -15.36991882 464.9984436 C-17.48145628 458.25983671 -19.56985508 451.51412352 -21.65112305 444.76611328 C-22.92622135 440.63501029 -24.21551002 436.50854278 -25.51299095 432.38441849 C-26.00208802 430.81942825 -26.48568785 429.25270806 -26.96343422 427.68421555 C-31.29556869 413.41191843 -31.29556869 413.41191843 -40.640625 402.05273438 C-46.83805144 398.95402116 -52.81192154 398.19169668 -59.6628418 398.3425293 C-60.40700348 398.35026871 -61.15116516 398.35800812 -61.9178772 398.36598206 C-63.51821337 398.38350884 -65.11850581 398.40550596 -66.7187252 398.43160057 C-69.25372855 398.47131227 -71.78845134 398.49548751 -74.32368469 398.51521301 C-81.52609403 398.57300935 -88.72807804 398.65071355 -95.92993164 398.75756836 C-100.34817871 398.82203229 -104.76609232 398.86206687 -109.18473244 398.88674355 C-110.86373167 398.90098427 -112.54267911 398.92456817 -114.22141075 398.95775414 C-116.56689519 399.00351316 -118.91071732 399.01824176 -121.2565918 399.02612305 C-121.94605392 399.04724152 -122.63551605 399.06835999 -123.34587097 399.09011841 C-127.12391364 399.06672303 -128.70259986 398.5389822 -131.72747803 396.19934082 C-133.765625 393.49023438 -133.765625 393.49023438 -133.88500977 389.60864258 C-132.79783221 383.45488654 -130.64717918 377.56527345 -128.58558464 371.6825161 C-127.84023059 369.55214951 -127.10840916 367.41754887 -126.38002014 365.28132629 C-124.30909086 359.21405968 -122.21787766 353.15392917 -120.11010742 347.09936523 C-118.81595985 343.37893575 -117.54006491 339.65263468 -116.27469063 335.92232704 C-115.79321096 334.51476401 -115.30494374 333.10950145 -114.80937004 331.70683861 C-111.205664 321.50186948 -108.36544535 311.68172538 -112.640625 301.24023438 C-118.06855144 291.83083442 -128.60543477 286.49183606 -137.38671875 280.55175781 C-143.33149425 276.51979034 -149.10395221 272.31151622 -154.81762695 267.96020508 C-160.52999434 263.62353076 -166.3742512 259.49027426 -172.27197266 255.40991211 C-173.28396729 254.70523804 -173.28396729 254.70523804 -174.31640625 253.98632812 C-175.20839722 253.37035767 -175.20839722 253.37035767 -176.1184082 252.74194336 C-179.59083218 250.1032717 -180.65240031 249.18090496 -181.390625 244.67773438 C-181.29075993 242.1481062 -181.1339049 240.9176081 -179.46777344 238.98413086 C-178.9009082 238.53110596 -178.33404297 238.07808105 -177.75 237.61132812 C-176.79504639 236.84284546 -176.79504639 236.84284546 -175.82080078 236.05883789 C-172.38394034 233.43566988 -168.91115797 230.87504365 -165.390625 228.36523438 C-164.60751953 227.80320313 -163.82441406 227.24117187 -163.01757812 226.66210938 C-157.09663163 222.41995333 -151.14555735 218.22069229 -145.18896484 214.02880859 C-139.77475344 210.21450864 -134.38799234 206.36323475 -129.015625 202.49023438 C-128.26474609 201.95011719 -127.51386719 201.41 -126.74023438 200.85351562 C-119.25003861 195.44203661 -113.91706425 191.46831342 -110.765625 182.49023438 C-109.79969049 174.30686342 -111.28332731 167.25760343 -114.01953125 159.59179688 C-114.35806625 158.59554291 -114.69660126 157.59928894 -115.0453949 156.57284546 C-116.12261943 153.41415673 -117.22436807 150.26473724 -118.328125 147.11523438 C-119.04144693 145.04421601 -119.75304736 142.97260388 -120.46289062 140.90039062 C-120.81322357 139.87838562 -121.16355652 138.85638062 -121.52450562 137.80340576 C-121.87348907 136.78482483 -122.22247253 135.7662439 -122.58203125 134.71679688 C-122.92964508 133.70321106 -123.27725891 132.68962524 -123.63540649 131.64532471 C-124.33245692 129.61111318 -125.02847767 127.57654851 -125.72344971 125.54162598 C-126.42515965 123.48708501 -127.12910132 121.43330506 -127.83514404 119.38024902 C-128.85792968 116.38816464 -129.8594282 113.38975009 -130.85546875 110.38867188 C-131.16513077 109.49314606 -131.47479279 108.59762024 -131.7938385 107.67495728 C-133.44507819 102.62257609 -134.36400313 98.75395275 -132.765625 93.49023438 C-130.34104019 90.9495423 -128.95058548 90.50907387 -125.42195129 90.1496582 C-124.07653612 90.15010253 -122.73106374 90.16711708 -121.38598633 90.19726562 C-120.64883392 90.20164642 -119.91168152 90.20602722 -119.15219116 90.21054077 C-117.55396801 90.22194115 -115.95578259 90.24027267 -114.35770607 90.26473999 C-111.82186442 90.30312478 -109.28649534 90.32260218 -106.75041199 90.3371582 C-100.44826963 90.37722476 -94.14657354 90.4495969 -87.84472656 90.5213623 C-82.5237697 90.58078101 -77.20298464 90.62762145 -71.88178062 90.65805054 C-69.39506017 90.67736616 -66.90905157 90.71489701 -64.42256165 90.75317383 C-54.149694 90.8533766 -45.03251306 90.4419357 -36.765625 83.49023438 C-31.73726731 76.77155305 -29.4996758 69.3205606 -27.06916428 61.40198326 C-26.33907664 59.02378145 -25.59507566 56.65032093 -24.8475647 54.27754211 C-23.26599037 49.24816345 -21.70265564 44.21321053 -20.140625 39.17773438 C-18.32220513 33.32218054 -16.49632069 27.46909383 -14.65575027 21.62046242 C-13.9239405 19.28349758 -13.20369055 16.94317669 -12.48397827 14.60246277 C-12.03590412 13.17255499 -11.58733286 11.74280286 -11.13818359 10.31323242 C-10.75133392 9.06495163 -10.36448425 7.81667084 -9.96591187 6.53056335 C-7.88192196 1.25181285 -5.85810321 -0.24052431 0 0 Z " fill="#FD8F00" transform="translate(180.765625,11.509765625)"/>
<path d="M0 0 C21.17141601 6.85969316 38.96434702 17.10594224 55.14282227 32.43554688 C56.04000977 33.26828125 56.93719727 34.10101563 57.86157227 34.95898438 C65.0187898 41.81463375 70.75691928 49.14249336 76.14282227 57.43554688 C76.8427832 58.51320313 77.54274414 59.59085937 78.26391602 60.70117188 C96.27458328 90.332757 101.71302225 126.70568995 94.14282227 160.43554688 C88.22101925 184.62875335 76.24230967 206.38918232 59.14282227 224.43554688 C58.31008789 225.33273437 57.47735352 226.22992188 56.61938477 227.15429688 C37.33138564 247.29074171 11.43186717 259.74570028 -15.85717773 264.43554688 C-16.90260742 264.64179688 -17.94803711 264.84804688 -19.02514648 265.06054688 C-52.77476015 271.22017218 -88.03446045 261.67730278 -116.08959961 242.66455078 C-146.98068145 221.18586211 -166.99872018 188.48838648 -173.79467773 151.62304688 C-176.42823449 135.02634954 -175.94151762 117.72009168 -171.85717773 101.43554688 C-171.57874023 100.21222656 -171.30030273 98.98890625 -171.01342773 97.72851562 C-165.13203388 73.51846763 -152.75723169 52.55835481 -135.60717773 34.62304688 C-134.88244263 33.83957886 -134.88244263 33.83957886 -134.14306641 33.0402832 C-131.65705434 30.53640146 -130.22945226 29.48093502 -126.68530273 29.04882812 C-123.85717773 29.43554688 -123.85717773 29.43554688 -120.85717773 30.43554688 C-118.48677785 28.94958011 -116.32115397 27.4412249 -114.10717773 25.74804688 C-109.51043563 22.29054064 -104.98957659 19.06171898 -99.85717773 16.43554688 C-97.79467773 17.12304688 -97.79467773 17.12304688 -95.85717773 18.43554688 C-90.67593275 19.86930281 -87.51402558 18.98180683 -82.60717773 16.93554688 C-80.77413086 16.20851562 -80.77413086 16.20851562 -78.90405273 15.46679688 C-75.50785509 13.68103173 -75.50785509 13.68103173 -74.86108398 9.86914062 C-74.52979492 8.73605469 -74.19850586 7.60296875 -73.85717773 6.43554688 C-70.83764648 4.87695312 -70.83764648 4.87695312 -67.04467773 3.99804688 C-66.05165649 3.76359863 -66.05165649 3.76359863 -65.03857422 3.52441406 C-58.66085493 2.14109275 -52.36042386 2.0407461 -45.85717773 2.43554688 C-45.77467773 1.67242187 -45.69217773 0.90929687 -45.60717773 0.12304688 C-44.85717773 -2.56445312 -44.85717773 -2.56445312 -43.17749023 -4.35351562 C-31.96179074 -10.20682681 -11.26797943 -3.46679223 0 0 Z " fill="#FBBD00" transform="translate(294.857177734375,125.564453125)"/>
<path d="M0 0 C4.46800871 0.98030611 7.72717382 3.93679993 11.234375 6.74023438 C12.06324219 7.37703125 12.89210937 8.01382812 13.74609375 8.66992188 C15.44455172 9.97562769 17.13730668 11.28878618 18.82421875 12.609375 C22.25628585 15.28772234 25.74439113 17.88815063 29.234375 20.49023438 C30.52755417 21.46130839 31.8205196 22.4326671 33.11328125 23.40429688 C37.78672938 26.90852578 42.47559529 30.39167644 47.171875 33.86523438 C48.32526367 34.72181641 48.32526367 34.72181641 49.50195312 35.59570312 C63.05618714 46.00072473 63.05618714 46.00072473 79.51171875 48.16992188 C87.63684306 46.14155512 93.88565271 40.94538218 100.359375 35.86523438 C102.23315102 34.41573408 104.10815119 32.96781486 105.984375 31.52148438 C106.88800781 30.82410156 107.79164063 30.12671875 108.72265625 29.40820312 C111.88785081 26.99123496 115.10333512 24.65770222 118.359375 22.36523438 C124.07835348 18.33033009 129.72772679 14.208693 135.359375 10.05273438 C136.58744873 9.146604 136.58744873 9.146604 137.84033203 8.22216797 C142.12995872 5.06370013 142.12995872 5.06370013 146.3605957 1.82739258 C149.64031012 -0.51306291 152.29830768 0.11537082 156.234375 0.49023438 C159.22085078 2.68990389 160.03674857 5.21840974 161.13208008 8.68579102 C161.47286087 9.74862808 161.81364166 10.81146515 162.16474915 11.9065094 C162.52417099 13.0594902 162.88359283 14.21247101 163.25390625 15.40039062 C163.63496017 16.59643417 164.0160141 17.79247772 164.40861511 19.02476501 C165.42392921 22.21667274 166.43132538 25.41085722 167.43475342 28.60650635 C168.43570273 31.78900416 169.44569527 34.96860405 170.45507812 38.1484375 C171.04301147 40.00088074 171.04301147 40.00088074 171.64282227 41.89074707 C172.22374634 43.72083313 172.22374634 43.72083313 172.81640625 45.58789062 C173.19998291 46.79747437 173.58355957 48.00705811 173.97875977 49.2532959 C177.2725333 59.63378566 177.2725333 59.63378566 180.62890625 69.99414062 C180.96907524 71.0538784 180.96907524 71.0538784 181.31611633 72.13502502 C183.68274137 79.28962559 186.59278614 84.31784037 193.296875 87.92773438 C198.68643834 90.38555161 203.94148578 90.62090273 209.79101562 90.52441406 C210.53473923 90.51652863 211.27846283 90.50864319 212.04472351 90.5005188 C213.65326636 90.48337323 215.26178835 90.46417365 216.87028503 90.44313812 C220.29246339 90.40100654 223.71468894 90.37759432 227.13703156 90.35310745 C233.50288654 90.30740694 239.86844004 90.25428469 246.23388672 90.16796875 C250.66815961 90.10855921 255.10204347 90.07360313 259.53666687 90.05478668 C261.22402126 90.04305016 262.91133818 90.02224579 264.59846497 89.99214935 C266.9587008 89.95109891 269.31718638 89.94125746 271.67773438 89.93847656 C272.37190964 89.91892914 273.0660849 89.89938171 273.78129578 89.87924194 C277.57696308 89.91106018 279.16892947 90.43956778 282.20713806 92.79168701 C284.234375 95.49023437 284.234375 95.49023437 284.22680664 99.21875 C283.29982549 103.86050419 281.85707867 108.35087375 280.35546875 112.83398438 C280.06737839 113.71287827 279.77928802 114.59177216 279.48246765 115.49729919 C278.86847982 117.36686274 278.251135 119.23532668 277.63067627 121.10275269 C276.66442049 124.01268403 275.70874563 126.92591322 274.75537109 129.84008789 C272.08096751 137.99655799 269.38175721 146.14091584 266.52734375 154.23632812 C266.15230713 155.31140625 265.77727051 156.38648438 265.39086914 157.49414062 C264.73361367 159.36339074 264.06118237 161.22742277 263.36889648 163.08398438 C260.54297016 171.1297295 259.80035634 179.54254286 262.921875 187.61523438 C266.72403458 194.26636589 273.07704947 198.22313737 279.234375 202.49023438 C280.56754853 203.43523953 281.89955055 204.38189925 283.23046875 205.33007812 C286.06797727 207.34622897 288.91386992 209.34976079 291.765625 211.34570312 C297.10984106 215.09394621 302.39574227 218.9215171 307.68066406 222.75268555 C311.23413829 225.32735616 314.79283355 227.89308544 318.375 230.42773438 C319.01800049 230.88325684 319.66100098 231.3387793 320.32348633 231.80810547 C321.51689192 232.65204861 322.71192993 233.49369029 323.90893555 234.33251953 C329.48000823 238.27512481 329.48000823 238.27512481 331.234375 240.49023438 C332.04499515 245.43501729 332.04499515 245.43501729 331.234375 248.49023438 C329.93652344 249.99633789 329.93652344 249.99633789 328.21875 251.36914062 C327.58211426 251.8814624 326.94547852 252.39378418 326.28955078 252.92163086 C322.85269034 255.54479887 319.37990797 258.1054251 315.859375 260.61523438 C315.07626953 261.17726563 314.29316406 261.73929687 313.48632812 262.31835938 C307.56454505 266.5611148 301.61207064 270.76013627 295.65551758 274.95385742 C290.26659169 278.75164161 284.8988222 282.57801131 279.546875 286.42773438 C278.433125 287.2253418 278.433125 287.2253418 277.296875 288.0390625 C266.888176 295.38257335 266.888176 295.38257335 261.234375 306.49023438 C260.27539025 315.2925546 262.08065669 322.66763222 264.99609375 330.91210938 C265.38376419 332.05576965 265.77143463 333.19942993 266.17085266 334.37774658 C267.40420176 338.00465308 268.66216582 341.62240958 269.921875 345.24023438 C270.74846354 347.6511041 271.57334765 350.06255892 272.39648438 352.47460938 C272.79763458 353.64906616 273.19878479 354.82352295 273.61209106 356.03356934 C274.00693695 357.18973755 274.40178284 358.34590576 274.80859375 359.53710938 C275.19804169 360.67619751 275.58748962 361.81528564 275.98873901 362.9888916 C276.73292567 365.1656112 277.47643803 367.34256148 278.21917725 369.51977539 C278.85763341 371.38789206 279.49887079 373.25506284 280.144104 375.12084961 C280.90398149 377.32785791 281.64488699 379.54014473 282.37890625 381.75585938 C282.77053955 382.91375977 283.16217285 384.07166016 283.56567383 385.26464844 C284.35543399 389.07418157 284.23081904 391.7314463 283.234375 395.49023438 C280.94270814 398.18708253 279.53154465 398.45441452 276.01391602 398.87841797 C274.76795654 398.88180176 273.52199707 398.88518555 272.23828125 398.88867188 C271.56772202 398.89154205 270.89716278 398.89441223 270.20628357 398.89736938 C268.79172926 398.89940559 267.37714651 398.89390668 265.96264648 398.88134766 C263.8071331 398.8653107 261.65350159 398.88119603 259.49804688 398.90039062 C258.11978756 398.89840762 256.7415294 398.89456275 255.36328125 398.88867188 C254.11619385 398.88528809 252.86910645 398.8819043 251.58422852 398.87841797 C247.98817119 398.46170409 246.0873763 397.68231509 243.234375 395.49023438 C242.04064311 392.46611358 242.1110938 390.93199202 242.984375 387.80273438 C244.234375 385.49023438 244.234375 385.49023438 247.234375 383.49023438 C249.3190918 383.26318359 249.3190918 383.26318359 251.68359375 383.29492188 C252.53115234 383.30136719 253.37871094 383.3078125 254.25195312 383.31445312 C255.13302734 383.33121094 256.01410156 383.34796875 256.921875 383.36523438 C257.81455078 383.37425781 258.70722656 383.38328125 259.62695312 383.39257812 C261.82969814 383.4161369 264.03190088 383.44903109 266.234375 383.49023438 C264.3532729 377.67672577 262.46917256 371.86419977 260.58251953 366.05249023 C259.9437129 364.08334394 259.30566707 362.11395064 258.66845703 360.14428711 C255.27454361 349.65522398 251.86642012 339.18157299 248.08041382 328.82606506 C244.29212129 318.35200748 243.52873163 307.52135284 247.94140625 297.09960938 C253.60162071 285.67657838 262.02370818 279.6345046 272.234375 272.49023438 C273.63082522 271.50021853 275.0266655 270.50934173 276.421875 269.51757812 C279.21786099 267.53480375 282.02079862 265.56238117 284.828125 263.59570312 C290.40461321 259.67978602 295.91969645 255.67930833 301.43505859 251.67797852 C302.15000488 251.15969482 302.86495117 250.64141113 303.6015625 250.10742188 C304.23175293 249.64964355 304.86194336 249.19186523 305.51123047 248.72021484 C307.06363818 247.61210631 308.64738782 246.54822583 310.234375 245.49023438 C309.09037503 242.05823446 308.46100283 241.69219538 305.54296875 239.77539062 C304.77106201 239.26016846 303.99915527 238.74494629 303.20385742 238.21411133 C302.36830322 237.66585693 301.53274902 237.11760254 300.671875 236.55273438 C294.29779659 232.28716634 288.02717332 227.94582665 281.921875 223.30273438 C276.29645596 219.02705016 270.61478529 214.85374125 264.83666992 210.78637695 C254.5474571 203.51964958 247.57822944 195.17422673 245.234375 182.49023438 C243.6740859 170.33364619 247.89635892 159.80616901 251.796875 148.49023438 C252.41390117 146.6562008 253.0291456 144.8215668 253.64257812 142.98632812 C254.86609198 139.3355853 256.10025197 135.68873843 257.34423828 132.04492188 C259.32298597 126.24400764 261.26427429 120.43088409 263.19921875 114.61523438 C263.65682335 113.24044922 263.65682335 113.24044922 264.12367249 111.83789062 C264.82764926 109.72214093 265.53124684 107.60626622 266.234375 105.49023438 C265.38405701 105.50133743 264.53373901 105.51244049 263.65765381 105.52388 C255.59703369 105.62456548 247.53662841 105.70044282 239.47552109 105.74929523 C235.33236349 105.77525636 231.18973067 105.8104029 227.046875 105.86743164 C223.03974592 105.92223927 219.03311772 105.95175598 215.0256424 105.96462059 C213.50596494 105.97377402 211.98631117 105.9916458 210.46685028 106.01888466 C198.30764763 106.22795073 187.71503422 104.17504136 178.02172852 96.24902344 C170.61246264 88.95816818 167.25000825 80.14039824 164.109375 70.42773438 C163.67727716 69.1296012 163.24407986 67.8318335 162.80981445 66.53442383 C160.1412511 58.51060469 157.61857293 50.44641222 155.328125 42.30664062 C153.91091441 37.36158797 152.3512478 32.46542464 150.7565918 27.57495117 C149.8528576 24.749093 149.234375 22.47956842 149.234375 19.49023438 C140.85834819 25.33686695 132.51516089 31.21366081 124.359375 37.36523438 C123.71661621 37.84903564 123.07385742 38.33283691 122.41162109 38.83129883 C119.55419295 40.98366096 116.69859605 43.13836469 113.84765625 45.29931641 C111.35729942 47.18321075 108.85896648 49.05611666 106.359375 50.92773438 C105.21879639 51.79664307 105.21879639 51.79664307 104.05517578 52.68310547 C92.42008012 61.35956973 82.77319137 64.36645768 68.234375 63.49023438 C57.10103657 61.48759118 47.66138525 53.51287092 38.984375 46.74023438 C37.13660985 45.31550848 35.28765008 43.89233058 33.4375 42.47070312 C32.54740234 41.78669434 31.65730469 41.10268555 30.74023438 40.39794922 C21.14962102 33.09659958 11.16391431 26.31885443 1.234375 19.49023438 C0.863125 21.31554688 0.863125 21.31554688 0.484375 23.17773438 C-2.22292307 35.34285776 -6.57895813 47.18265695 -10.41015625 59.02929688 C-10.78527344 60.19203125 -11.16039062 61.35476562 -11.546875 62.55273438 C-11.91707764 63.6985498 -12.28728027 64.84436523 -12.66870117 66.02490234 C-14.0912107 70.51880403 -15.42402484 75.03805845 -16.73754883 79.56494141 C-20.267272 89.60843298 -26.84667094 97.16303147 -36.421875 101.76757812 C-42.62527175 104.33104061 -47.71589937 105.61625239 -54.46191406 105.60375977 C-55.45765442 105.60397881 -55.45765442 105.60397881 -56.47351074 105.60420227 C-58.6594575 105.6035077 -60.84531819 105.59573669 -63.03125 105.58789062 C-64.55010939 105.58602483 -66.06896938 105.58460169 -67.58782959 105.58360291 C-71.57940339 105.57979047 -75.57094062 105.56997107 -79.5625 105.55889893 C-83.6380158 105.54865741 -87.71353753 105.54409941 -91.7890625 105.5390625 C-99.78126675 105.52834765 -107.77344132 105.51128654 -115.765625 105.49023438 C-115.51728409 106.2330365 -115.26894318 106.97583862 -115.01307678 107.7411499 C-112.67201591 114.74428855 -110.33240204 121.74790814 -107.99440861 128.75207138 C-106.79239852 132.35288493 -105.58983145 135.95351044 -104.38598633 139.55371094 C-103.22405383 143.02863658 -102.06359117 146.50404988 -100.90414238 149.97980499 C-100.46171732 151.30523369 -100.01876453 152.63048636 -99.57527351 153.95555878 C-98.95381133 155.81267794 -98.33440534 157.67048481 -97.71508789 159.52832031 C-97.36201065 160.58533142 -97.00893341 161.64234253 -96.64515686 162.73138428 C-92.7975878 174.80015262 -94.41388464 186.06324545 -100.1796875 197.22851562 C-105.69512097 205.9298045 -113.98227052 211.12682222 -122.33691406 216.81982422 C-126.28229336 219.53336313 -130.14430465 222.36007232 -134.015625 225.17773438 C-139.56785866 229.19207355 -145.12951988 233.19312143 -150.703125 237.17773438 C-151.27643555 237.58789795 -151.84974609 237.99806152 -152.44042969 238.4206543 C-154.86033176 240.14783913 -157.29152682 241.84083559 -159.765625 243.49023438 C-159.765625 244.15023437 -159.765625 244.81023437 -159.765625 245.49023438 C-157.84026371 247.0162844 -155.91393608 248.41608386 -153.890625 249.80273438 C-152.59714447 250.70695064 -151.30420146 251.61193617 -150.01171875 252.51757812 C-149.32062012 252.99952637 -148.62952148 253.48147461 -147.91748047 253.97802734 C-144.23362984 256.56683728 -140.59646566 259.21987974 -136.953125 261.86523438 C-130.15533181 266.79097049 -123.31621843 271.65395353 -116.42260742 276.44482422 C-106.03791697 283.71193634 -97.11557681 292.43960913 -94.765625 305.49023438 C-94.09943448 311.86900859 -94.30656088 317.75204224 -96.28125 323.87695312 C-96.6429126 325.00439941 -97.0045752 326.1318457 -97.37719727 327.29345703 C-97.83868535 328.6928192 -98.30164876 330.09169521 -98.765625 331.49023438 C-99.19390091 332.78667877 -99.19390091 332.78667877 -99.63082886 334.10931396 C-102.05261372 341.43015431 -104.5010398 348.74199815 -106.953125 356.05273438 C-108.40667638 360.38679337 -109.85823316 364.72151296 -111.30859375 369.05664062 C-111.8070002 370.53941246 -111.8070002 370.53941246 -112.31547546 372.05213928 C-112.6228212 372.97087326 -112.93016693 373.88960724 -113.24682617 374.83618164 C-113.51677902 375.64080338 -113.78673187 376.44542511 -114.06486511 377.27442932 C-114.71593892 379.33312681 -115.26780995 381.38981753 -115.765625 383.49023438 C-114.93592194 383.48357254 -114.10621887 383.47691071 -113.25137329 383.470047 C-105.39609888 383.40970034 -97.54090338 383.36414096 -89.6854496 383.33479786 C-85.64778299 383.31920465 -81.61030944 383.29808389 -77.57275391 383.26391602 C-73.66940819 383.23109416 -69.76624707 383.21333376 -65.8627739 383.20560265 C-64.38056919 383.20009978 -62.8983735 383.18935505 -61.41624832 383.1730442 C-46.54008838 383.01598281 -36.15076825 385.76800558 -24.765625 395.49023438 C-19.00171952 402.7445049 -15.91562465 410.72735532 -13.203125 419.49023438 C-12.82454346 420.66924316 -12.44596191 421.84825195 -12.0559082 423.06298828 C-10.94465067 426.53434065 -9.85379088 430.01158733 -8.765625 433.49023438 C-8.17855191 435.33184901 -7.59014706 437.17303999 -7 439.01367188 C-5.78156015 442.82442564 -4.58442191 446.64128636 -3.39892578 450.46240234 C-2.77974316 452.44502796 -2.14765906 454.42308452 -1.51171875 456.40039062 C-1.14175781 457.56441406 -0.77179688 458.7284375 -0.390625 459.92773438 C-0.07351562 460.91644531 0.24359375 461.90515625 0.5703125 462.92382812 C1.234375 465.49023438 1.234375 465.49023438 1.234375 469.49023438 C10.15852686 463.25132667 19.03245512 456.9521524 27.796875 450.49023438 C28.58803711 449.90749756 29.37919922 449.32476074 30.19433594 448.72436523 C34.03556788 445.8859293 37.85548937 443.02421465 41.640625 440.11132812 C54.91039937 429.92329839 64.95795768 424.18845912 82.234375 425.49023438 C93.59909635 427.96926689 102.84789126 435.27907919 111.83105469 442.30078125 C116.77383035 446.16403398 121.80472813 449.89984868 126.859375 453.61523438 C128.07911011 454.51181763 128.07911011 454.51181763 129.32348633 455.42651367 C135.28054022 459.79928972 141.24759214 464.1582252 147.234375 468.49023438 C148.95282506 465.91255928 149.76376516 464.22536918 150.66723633 461.34863281 C150.93123734 460.51636169 151.19523834 459.68409058 151.46723938 458.82659912 C151.74746445 457.9266925 152.02768951 457.02678589 152.31640625 456.09960938 C152.61246262 455.16280334 152.90851898 454.22599731 153.21354675 453.26080322 C154.16247575 450.25533927 155.1049339 447.24789494 156.046875 444.24023438 C158.43312969 436.65386835 160.82564973 429.06949822 163.234375 421.49023438 C163.48149231 420.71156006 163.72860962 419.93288574 163.98321533 419.13061523 C164.64189861 417.06582701 165.30920585 415.00408691 165.98046875 412.94335938 C166.34197021 411.82606445 166.70347168 410.70876953 167.07592773 409.55761719 C171.50305038 397.83530551 179.30201806 390.57292221 190.41015625 385.21679688 C194.203939 383.70578276 197.65478559 383.30748035 201.734375 383.24023438 C202.6728125 383.21445312 203.61125 383.18867188 204.578125 383.16210938 C207.70275273 383.5480928 209.00897612 384.29012411 211.234375 386.49023438 C212.234375 389.92773438 212.234375 389.92773438 212.234375 393.49023438 C209.21295993 397.58111071 206.37939495 398.12777504 201.484375 398.86523438 C195.00186316 400.13750305 190.72582508 401.59953817 186.234375 406.49023438 C181.61847048 413.75371688 179.2349037 422.07613573 176.7231102 430.23435783 C176.02437634 432.50275588 175.31472298 434.76748992 174.60232544 437.03163147 C172.83858744 442.64445843 171.09242131 448.2627126 169.34729004 453.88134766 C167.86403568 458.6550453 166.37337719 463.42629905 164.87231827 468.1944294 C164.17413341 470.42293325 163.48705295 472.65466649 162.80026245 474.88670349 C162.37244892 476.24943387 161.94410265 477.61199717 161.51513672 478.97436523 C161.14605194 480.16331894 160.77696716 481.35227264 160.396698 482.57725525 C159.29241519 485.34477579 158.64433643 486.7864863 156.234375 488.49023438 C151.49555835 489.13530889 148.59066494 489.09573649 144.62109375 486.35742188 C143.37330746 485.37849561 142.14090167 484.37974965 140.921875 483.36523438 C139.51671102 482.25448412 138.1104129 481.14516745 136.703125 480.03710938 C135.97351563 479.45380859 135.24390625 478.87050781 134.4921875 478.26953125 C130.7075318 475.28698684 126.81222753 472.45761443 122.921875 469.61523438 C121.32383488 468.44127757 119.72618215 467.26679326 118.12890625 466.09179688 C117.32791504 465.50301758 116.52692383 464.91423828 115.70166016 464.30761719 C113.17116485 462.44367428 110.64557087 460.57325603 108.12109375 458.70117188 C107.28167236 458.07968262 106.44225098 457.45819336 105.57739258 456.81787109 C103.98877287 455.64145333 102.40127848 454.46351365 100.81518555 453.28369141 C87.33252588 442.94386778 87.33252588 442.94386778 70.95703125 440.81054688 C62.83190694 442.83891363 56.58309729 448.03508657 50.109375 453.11523438 C48.23559898 454.56473467 46.36059881 456.01265389 44.484375 457.45898438 C43.12892578 458.50505859 43.12892578 458.50505859 41.74609375 459.57226562 C38.58089919 461.98923379 35.36541488 464.32276653 32.109375 466.61523438 C26.39039652 470.65013866 20.74102321 474.77177575 15.109375 478.92773438 C14.29065918 479.53182129 13.47194336 480.1359082 12.62841797 480.75830078 C8.33879128 483.91676862 8.33879128 483.91676862 4.1081543 487.15307617 C0.82843988 489.49353166 -1.82955768 488.86509793 -5.765625 488.49023438 C-9.24184209 486.10290839 -9.92297835 482.57409182 -11.12231445 478.68310547 C-11.3374469 477.99486694 -11.55257935 477.30662842 -11.77423096 476.59753418 C-12.23985566 475.10429061 -12.70126183 473.60972653 -13.15892982 472.11402512 C-13.88643255 469.73910236 -14.62639578 467.3683961 -15.36991882 464.9984436 C-17.48145628 458.25983671 -19.56985508 451.51412352 -21.65112305 444.76611328 C-22.92622135 440.63501029 -24.21551002 436.50854278 -25.51299095 432.38441849 C-26.00208802 430.81942825 -26.48568785 429.25270806 -26.96343422 427.68421555 C-31.29556869 413.41191843 -31.29556869 413.41191843 -40.640625 402.05273438 C-46.83805144 398.95402116 -52.81192154 398.19169668 -59.6628418 398.3425293 C-60.40700348 398.35026871 -61.15116516 398.35800812 -61.9178772 398.36598206 C-63.51821337 398.38350884 -65.11850581 398.40550596 -66.7187252 398.43160057 C-69.25372855 398.47131227 -71.78845134 398.49548751 -74.32368469 398.51521301 C-81.52609403 398.57300935 -88.72807804 398.65071355 -95.92993164 398.75756836 C-100.34817871 398.82203229 -104.76609232 398.86206687 -109.18473244 398.88674355 C-110.86373167 398.90098427 -112.54267911 398.92456817 -114.22141075 398.95775414 C-116.56689519 399.00351316 -118.91071732 399.01824176 -121.2565918 399.02612305 C-121.94605392 399.04724152 -122.63551605 399.06835999 -123.34587097 399.09011841 C-127.12391364 399.06672303 -128.70259986 398.5389822 -131.72747803 396.19934082 C-133.765625 393.49023438 -133.765625 393.49023438 -133.88500977 389.60864258 C-132.79783221 383.45488654 -130.64717918 377.56527345 -128.58558464 371.6825161 C-127.84023059 369.55214951 -127.10840916 367.41754887 -126.38002014 365.28132629 C-124.30909086 359.21405968 -122.21787766 353.15392917 -120.11010742 347.09936523 C-118.81595985 343.37893575 -117.54006491 339.65263468 -116.27469063 335.92232704 C-115.79321096 334.51476401 -115.30494374 333.10950145 -114.80937004 331.70683861 C-111.205664 321.50186948 -108.36544535 311.68172538 -112.640625 301.24023438 C-118.06855144 291.83083442 -128.60543477 286.49183606 -137.38671875 280.55175781 C-143.33149425 276.51979034 -149.10395221 272.31151622 -154.81762695 267.96020508 C-160.52999434 263.62353076 -166.3742512 259.49027426 -172.27197266 255.40991211 C-173.28396729 254.70523804 -173.28396729 254.70523804 -174.31640625 253.98632812 C-175.20839722 253.37035767 -175.20839722 253.37035767 -176.1184082 252.74194336 C-179.59083218 250.1032717 -180.65240031 249.18090496 -181.390625 244.67773438 C-181.29075993 242.1481062 -181.1339049 240.9176081 -179.46777344 238.98413086 C-178.9009082 238.53110596 -178.33404297 238.07808105 -177.75 237.61132812 C-176.79504639 236.84284546 -176.79504639 236.84284546 -175.82080078 236.05883789 C-172.38394034 233.43566988 -168.91115797 230.87504365 -165.390625 228.36523438 C-164.60751953 227.80320313 -163.82441406 227.24117187 -163.01757812 226.66210938 C-157.09663163 222.41995333 -151.14555735 218.22069229 -145.18896484 214.02880859 C-139.77475344 210.21450864 -134.38799234 206.36323475 -129.015625 202.49023438 C-128.26474609 201.95011719 -127.51386719 201.41 -126.74023438 200.85351562 C-119.25003861 195.44203661 -113.91706425 191.46831342 -110.765625 182.49023438 C-109.79969049 174.30686342 -111.28332731 167.25760343 -114.01953125 159.59179688 C-114.35806625 158.59554291 -114.69660126 157.59928894 -115.0453949 156.57284546 C-116.12261943 153.41415673 -117.22436807 150.26473724 -118.328125 147.11523438 C-119.04144693 145.04421601 -119.75304736 142.97260388 -120.46289062 140.90039062 C-120.81322357 139.87838562 -121.16355652 138.85638062 -121.52450562 137.80340576 C-121.87348907 136.78482483 -122.22247253 135.7662439 -122.58203125 134.71679688 C-122.92964508 133.70321106 -123.27725891 132.68962524 -123.63540649 131.64532471 C-124.33245692 129.61111318 -125.02847767 127.57654851 -125.72344971 125.54162598 C-126.42515965 123.48708501 -127.12910132 121.43330506 -127.83514404 119.38024902 C-128.85792968 116.38816464 -129.8594282 113.38975009 -130.85546875 110.38867188 C-131.16513077 109.49314606 -131.47479279 108.59762024 -131.7938385 107.67495728 C-133.44507819 102.62257609 -134.36400313 98.75395275 -132.765625 93.49023438 C-130.34104019 90.9495423 -128.95058548 90.50907387 -125.42195129 90.1496582 C-124.07653612 90.15010253 -122.73106374 90.16711708 -121.38598633 90.19726562 C-120.64883392 90.20164642 -119.91168152 90.20602722 -119.15219116 90.21054077 C-117.55396801 90.22194115 -115.95578259 90.24027267 -114.35770607 90.26473999 C-111.82186442 90.30312478 -109.28649534 90.32260218 -106.75041199 90.3371582 C-100.44826963 90.37722476 -94.14657354 90.4495969 -87.84472656 90.5213623 C-82.5237697 90.58078101 -77.20298464 90.62762145 -71.88178062 90.65805054 C-69.39506017 90.67736616 -66.90905157 90.71489701 -64.42256165 90.75317383 C-54.149694 90.8533766 -45.03251306 90.4419357 -36.765625 83.49023438 C-31.73726731 76.77155305 -29.4996758 69.3205606 -27.06916428 61.40198326 C-26.33907664 59.02378145 -25.59507566 56.65032093 -24.8475647 54.27754211 C-23.26599037 49.24816345 -21.70265564 44.21321053 -20.140625 39.17773438 C-18.32220513 33.32218054 -16.49632069 27.46909383 -14.65575027 21.62046242 C-13.9239405 19.28349758 -13.20369055 16.94317669 -12.48397827 14.60246277 C-12.03590412 13.17255499 -11.58733286 11.74280286 -11.13818359 10.31323242 C-10.75133392 9.06495163 -10.36448425 7.81667084 -9.96591187 6.53056335 C-7.88192196 1.25181285 -5.85810321 -0.24052431 0 0 Z " fill="#020100" transform="translate(180.765625,11.509765625)"/>
<path d="M0 0 C26.40156245 5.74084785 49.44926105 17.60191605 69.03515625 36.16015625 C69.93234375 36.99289063 70.82953125 37.825625 71.75390625 38.68359375 C78.91112378 45.53924313 84.64925326 52.86710273 90.03515625 61.16015625 C90.73511719 62.2378125 91.43507813 63.31546875 92.15625 64.42578125 C110.16691726 94.05736637 115.60535624 130.43029933 108.03515625 164.16015625 C102.11335324 188.35336273 90.13464365 210.11379169 73.03515625 228.16015625 C72.20242188 229.05734375 71.3696875 229.95453125 70.51171875 230.87890625 C51.22371962 251.01535109 25.32420115 263.47030965 -1.96484375 268.16015625 C-3.01027344 268.36640625 -4.05570313 268.57265625 -5.1328125 268.78515625 C-38.88242616 274.94478156 -74.14212647 265.40191215 -102.19726562 246.38916016 C-133.08834746 224.91047149 -153.10638619 192.21299585 -159.90234375 155.34765625 C-162.5359005 138.75095891 -162.04918364 121.44470105 -157.96484375 105.16015625 C-157.68640625 103.93683594 -157.40796875 102.71351563 -157.12109375 101.453125 C-151.23969989 77.24307701 -138.8648977 56.28296419 -121.71484375 38.34765625 C-120.99010864 37.56418823 -120.99010864 37.56418823 -120.25073242 36.76489258 C-117.74688445 34.24304673 -116.32418886 33.2038722 -112.75390625 32.76953125 C-109.47653179 33.22854728 -108.10325667 33.61051008 -105.96484375 36.16015625 C-105.21484375 39.34765625 -105.21484375 39.34765625 -105.96484375 43.16015625 C-107.64363399 45.23422951 -109.51913459 46.94476146 -111.484375 48.75 C-120.4418854 57.45359671 -127.35343059 68.0657444 -132.96484375 79.16015625 C-133.27405762 79.76520996 -133.58327148 80.37026367 -133.90185547 80.99365234 C-139.52730696 92.22985211 -142.48242889 103.88383901 -144.96484375 116.16015625 C-145.16851562 117.12953125 -145.3721875 118.09890625 -145.58203125 119.09765625 C-147.33201816 133.09755154 -146.42676083 147.52187808 -142.96484375 161.16015625 C-142.79855469 161.8370752 -142.63226563 162.51399414 -142.4609375 163.21142578 C-134.58226406 194.71882448 -115.48259012 221.07197369 -87.71875 237.99609375 C-75.4515301 245.20142355 -62.82413657 250.02175984 -48.96484375 253.16015625 C-47.33869141 253.52947266 -47.33869141 253.52947266 -45.6796875 253.90625 C-29.94786185 256.84962383 -13.45954644 255.89063443 2.03515625 252.16015625 C2.73060547 251.99386719 3.42605469 251.82757813 4.14257812 251.65625 C35.72339571 243.82629523 61.88994033 224.53007924 78.90234375 196.8203125 C85.59040206 185.55415487 89.79648643 173.81377608 93.03515625 161.16015625 C93.35613281 159.98324219 93.67710937 158.80632812 94.0078125 157.59375 C97.95589285 141.15871786 97.30562262 123.44014376 93.03515625 107.16015625 C92.79152344 106.00386719 92.54789063 104.84757812 92.296875 103.65625 C88.42761268 86.65716863 80.08586479 70.59302821 69.03515625 57.16015625 C68.61153809 56.64163086 68.18791992 56.12310547 67.75146484 55.58886719 C47.71684005 31.49306799 17.47242696 16.53278155 -13.61328125 13.546875 C-16.26566465 13.31073126 -18.90965598 13.10367007 -21.5690918 12.96777344 C-27.39035751 12.58612979 -27.39035751 12.58612979 -30.48828125 10.2890625 C-31.96484375 8.16015625 -31.96484375 8.16015625 -32.52734375 5.16015625 C-31.96484375 2.16015625 -31.96484375 2.16015625 -29.81640625 0 C-22.11308131 -4.97022746 -8.70976807 -1.69326321 0 0 Z " fill="#040300" transform="translate(280.96484375,121.83984375)"/>
<path d="M0 0 C3.76279405 0.62713234 4.70716757 1.48141234 7 4.5 C7.38805841 7.08752303 7.53494494 9.25160321 7.49829102 11.83544922 C7.50380981 12.56766693 7.50932861 13.29988464 7.51501465 14.05429077 C7.52432572 15.64097286 7.52444712 17.22772969 7.51642036 18.81441879 C7.5037854 21.32873539 7.51508437 23.8419549 7.53245544 26.35623169 C7.55916785 30.78943334 7.56475092 35.22236622 7.56335449 39.65563965 C7.56112711 46.74413366 7.57531353 53.83229412 7.61894035 60.92065811 C7.62875824 63.3924241 7.62007105 65.86366374 7.61024475 68.3354187 C7.6163917 69.85886984 7.62330435 71.38231814 7.63110352 72.90576172 C7.61952461 73.92996216 7.61952461 73.92996216 7.60771179 74.97485352 C7.65567767 79.53146937 8.64351853 82.61493116 11 86.5 C15.50549566 90.6711034 21.21652385 89.94312995 27 89.875 C27.98484375 89.88660156 28.9696875 89.89820313 29.984375 89.91015625 C37.04476316 89.9563711 37.04476316 89.9563711 43 86.5 C46.04612884 82.42073777 46.42459062 78.97613091 46.36889648 74.03515625 C46.37266296 73.30118622 46.37642944 72.56721619 46.38031006 71.81100464 C46.38672596 70.22377802 46.38642806 68.63651296 46.38012505 67.04928589 C46.3709949 64.53528244 46.38125953 62.02202163 46.39674377 59.50805664 C46.4367947 52.3631298 46.43804446 45.21826263 46.43579102 38.07324219 C46.4357399 33.69716611 46.45491366 29.32149202 46.48512459 24.94552612 C46.49594302 22.47196435 46.48382504 19.99917175 46.47129822 17.52563477 C46.48020338 16.00536338 46.49027803 14.48509824 46.50170898 12.96484375 C46.49196548 12.28001923 46.48222198 11.5951947 46.47218323 10.88961792 C46.5239555 7.43470321 46.97810205 5.53537093 48.81239319 2.57250977 C51 0.5 51 0.5 54.5 -0.125 C58 0.5 58 0.5 60.18640137 2.57846069 C62.46851099 6.25472779 62.50706858 8.55715556 62.51757812 12.86962891 C62.5245874 13.59396118 62.53159668 14.31829346 62.53881836 15.0645752 C62.55637863 17.45229806 62.5447762 19.83882812 62.53125 22.2265625 C62.53394726 23.89700547 62.53783163 25.5674469 62.54284668 27.23788452 C62.54874053 30.7399591 62.54018927 34.24162532 62.52148438 37.74365234 C62.49880059 42.20547206 62.51175065 46.66632361 62.53577423 51.12810707 C62.55032639 54.58054708 62.54558166 58.03276313 62.53526306 61.48521042 C62.53261615 63.12844332 62.53579294 64.77169733 62.54518127 66.41490555 C62.59216346 76.9574888 61.96778747 86.20626816 56.1875 95.375 C47.42951103 103.88276071 39.19791408 104.88161059 27.25 104.9375 C25.41308594 104.98680664 25.41308594 104.98680664 23.5390625 105.03710938 C14.58906204 105.0898128 7.59995264 103.71242813 0.85839844 97.53881836 C-5.30659803 91.18357527 -7.45991716 84.13560567 -7.40405273 75.40332031 C-7.41434761 74.25540764 -7.41434761 74.25540764 -7.42485046 73.08430481 C-7.44299264 70.58205051 -7.43930178 68.08043022 -7.43359375 65.578125 C-7.4381592 63.82793984 -7.44346586 62.07775647 -7.44947815 60.32757568 C-7.45838261 56.67289915 -7.45601378 53.0184415 -7.44604492 49.36376953 C-7.4345147 44.68056072 -7.45484173 39.9981014 -7.48396206 35.314991 C-7.50229581 31.70673841 -7.50203803 28.0986668 -7.49632454 24.49037933 C-7.49617121 22.76320081 -7.50222502 21.03601012 -7.51461601 19.30887604 C-7.52948422 16.89846866 -7.5188839 14.48946478 -7.50170898 12.07910156 C-7.51137695 11.36734268 -7.52104492 10.6555838 -7.53100586 9.92225647 C-7.48071568 6.55399902 -7.20998013 4.77814777 -5.15614319 2.05755615 C-3 0.5 -3 0.5 0 0 Z " fill="#040300" transform="translate(187,203.5)"/>
<path d="M0 0 C3.99093841 3.84366196 5.05042413 8.01338169 6.10644531 13.27856445 C6.28259369 14.09859451 6.45874207 14.91862457 6.64022827 15.76350403 C7.21618805 18.46079847 7.77222564 21.16178772 8.328125 23.86328125 C8.72474869 25.73969493 9.12261382 27.61584659 9.52166748 29.491745 C10.56644799 34.41946075 11.59435873 39.350548 12.61877441 44.28253174 C13.66795867 49.31875819 14.73308902 54.35160712 15.796875 59.38476562 C17.88018742 69.25327339 19.94569023 79.12541716 22 89 C22.99 89 23.98 89 25 89 C27.53777065 79.1314771 29.87159232 69.25043466 31.92396736 59.26877975 C32.36235902 57.13952668 32.80582429 55.01138263 33.25059509 52.88345337 C34.51165191 46.84779235 35.76699134 40.81097316 37.01196289 34.77197266 C37.78103135 31.04322309 38.55823407 27.316246 39.34057426 23.59025955 C39.63427627 22.18357601 39.92491983 20.77625002 40.21232796 19.36826706 C40.61312597 17.405875 41.02521716 15.44579983 41.43774414 13.48583984 C41.66772598 12.37493988 41.89770782 11.26403992 42.13465881 10.11947632 C43.05908241 6.78701328 44.27782652 3.99605229 46 1 C48.84083641 -0.42041821 50.85477278 -0.31452272 54 0 C56.375 1.5625 56.375 1.5625 58 4 C58.36087876 9.43658752 57.49600306 14.27575667 56.3125 19.53515625 C56.13438278 20.35512589 55.95626556 21.17509552 55.77275085 22.01991272 C55.18865532 24.70231899 54.59457092 27.38239793 54 30.0625 C53.17063877 33.84189384 52.34524262 37.62215109 51.51953125 41.40234375 C51.30899612 42.3624939 51.098461 43.32264404 50.88154602 44.31188965 C49.45379604 50.84449315 48.0885529 57.38761901 46.76171875 63.94140625 C46.4083269 65.673772 46.05481365 67.40611299 45.70117188 69.13842773 C45.19719526 71.60848175 44.69660516 74.07893614 44.20776367 76.55203247 C40.50698106 95.25088884 40.50698106 95.25088884 35.24609375 100.875 C29.64696393 104.35782805 24.51324572 105.077229 18 104 C13.50643955 101.79407032 10.84750725 99.06982498 8 95 C6.86470032 91.5975647 6.86470032 91.5975647 5.98168945 87.72900391 C5.81843579 87.02925257 5.65518213 86.32950123 5.48698139 85.6085453 C4.97765716 83.40855604 4.4876928 81.20487419 4 79 C3.69033301 77.6376001 3.37999442 76.27535266 3.06893921 74.91326904 C2.11998003 70.72591436 1.20334327 66.53182741 0.29296875 62.3359375 C0.12990046 61.5858202 -0.03316784 60.8357029 -0.2011776 60.06285477 C-1.05904489 56.11435281 -1.9135538 52.16514124 -2.76538086 48.21533203 C-3.64157392 44.1562671 -4.53053481 40.1001034 -5.42210865 36.04439354 C-6.111373 32.89749313 -6.79093974 29.74855516 -7.46790123 26.59898758 C-7.79155766 25.10153151 -8.11888704 23.60486416 -8.45005226 22.10905075 C-8.91039172 20.02578731 -9.35681351 17.93998686 -9.80004883 15.85302734 C-10.05667801 14.67106781 -10.31330719 13.48910828 -10.57771301 12.27133179 C-11.10142721 8.21427354 -11.01460351 4.69100584 -8.875 1.125 C-5.79484632 -0.72309221 -3.49557617 -0.49060718 0 0 Z " fill="#060400" transform="translate(274,204)"/>
<path d="M0 0 C1.875 1.1875 1.875 1.1875 3 3 C3.4375 5.9375 3.4375 5.9375 3 9 C0.16195549 12.44571992 -2.79284087 14.09342281 -6.875 15.8125 C-7.88304687 16.25207031 -8.89109375 16.69164062 -9.9296875 17.14453125 C-13.4149012 18.11560224 -15.52959915 17.93567156 -19 17 C-21.77199987 14.67509688 -21.9709595 13.22402673 -22.4375 9.625 C-20.36077175 4.3880331 -16.86076458 3.4071397 -11.8828125 1.1640625 C-7.31000581 -0.68240958 -4.83173454 -1.20793363 0 0 Z " fill="#080500" transform="translate(218,128)"/>
</svg>
